<?xml version="1.0" encoding="UTF-8"?>
<svg width="2625.8" height="1612" clip-rule="evenodd" fill-rule="evenodd" image-rendering="optimizeQuality" shape-rendering="geometricPrecision" text-rendering="geometricPrecision" version="1.1" viewBox="0 0 2625.7627 1612" xml:space="preserve" xmlns="http://www.w3.org/2000/svg" xmlns:xlink="http://www.w3.org/1999/xlink"><defs><style type="text/css">
    .str0 {stroke:#2B2A29;stroke-width:0.900032}
    .str1 {stroke:black;stroke-width:0.900032}
    .str2 {stroke:#FFCC00;stroke-width:0.900032}
    .fil2 {fill:none}
    .fil1 {fill:#2B2A29}
    .fil5 {fill:#FECC00}
    .fil3 {fill:black}
    .fil6 {fill:#FFCC00}
    .fil0 {fill:url(#p)}
    .fil4 {fill:url(#q)}
   </style><mask id="x"><linearGradient id="y" x1="1322.7" x2="1328.9" y1="1247.2" y2="1470.4" gradientUnits="userSpaceOnUse"><stop stop-color="#fff" offset="0"/><stop stop-color="#fff" stop-opacity="0" offset="1"/></linearGradient><rect x="1234" y="1214" width="184" height="290" fill="url(#y)"/></mask><mask id="z"><linearGradient id="aa" x1="1120" x2="1120" y1="1264.8" y2="1522.5" gradientUnits="userSpaceOnUse"><stop stop-color="#fff" offset="0"/><stop stop-color="#fff" stop-opacity="0" offset="1"/></linearGradient><rect x="1023" y="1232" width="194" height="323" fill="url(#aa)"/></mask><mask id="ab"><linearGradient id="ac" x1="915.94" x2="915.94" y1="1220.6" y2="1567.8" gradientUnits="userSpaceOnUse"><stop stop-color="#fff" offset="0"/><stop stop-color="#fff" stop-opacity="0" offset="1"/></linearGradient><rect x="825" y="1220" width="182" height="348" fill="url(#ac)"/></mask><clipPath id="ad"><path d="m2346 1261h28v37h-28v-37z"/></clipPath><mask id="r"><linearGradient id="s" x1="2319.3" x2="2454.5" y1="1358.5" y2="1504.5" gradientUnits="userSpaceOnUse"><stop stop-color="#fff" offset="0"/><stop stop-color="#fff" stop-opacity="0" offset="1"/></linearGradient><rect x="2253" y="1321" width="268" height="221" fill="url(#s)"/></mask><clipPath id="t"><path d="m2374 1366 29 42h28l-29-42h-28z"/></clipPath><mask id="u"><linearGradient id="v" x1="2187.5" x2="2280.2" y1="1369.5" y2="1468.9" gradientUnits="userSpaceOnUse"><stop stop-color="#fff" offset="0"/><stop stop-color="#fff" stop-opacity="0" offset="1"/></linearGradient><rect x="2149" y="1337" width="170" height="164" fill="url(#v)"/></mask><clipPath id="w"><path d="m2180 1197h24v23h-24v-23z"/></clipPath><linearGradient id="p" x1="1709.6" x2="1729.6" y1="293.48" y2="1577.7" gradientUnits="userSpaceOnUse"><stop stop-color="#080028" offset="0"/><stop stop-color="#FEFEFE" offset="1"/></linearGradient><linearGradient id="q" x1="1794.4" x2="1666.1" y1="1853.7" y2="1338.3" gradientTransform="matrix(.99019 0 0 1 -400.27 -311)" gradientUnits="userSpaceOnUse"><stop offset="0"/><stop stop-color="#4C4C4C" offset="1"/></linearGradient></defs><polygon class="fil0" transform="translate(-422,-311)" points="422 311 422 1918 3047 1918 3047 311" fill="url(#p)"/><circle cx="704.68" cy="692.56" r="451.86" fill="#fff"/><path d="m2624.7 1060.4c-210.52-218.19-1088.3 146.86-1467.8-47.288-390.37-131.82-779.77-231.02-1156.3 105.08v373.05h2618.9z" fill="#808080" fill-rule="evenodd"/><path class="fil1 str0" transform="translate(-422,-311)" d="m1250 1352c6 21 16 36 29 51 1 17 16 47 24 60 2 6 3 9-1 12-2 5 3 9 1 12l-6 6c2 0 5-1 7-1-1 3-2 5-2 8l5-5c0 3 1 6 1 9 1-4 2-10 3-14 4 1 9 1 9-8 1-2 2-2 3-4 0-1-1 0-1-2-1-1 0-4 0-6 2-2 1-3 1-3 0-1 0-1-2 0 3-6 5-16 4-24 3 1 6 2 9 2 3-1 2-3 1-5 6-18 12-32 19-40 6-7 12-10 19-10 0 6-2 13-4 21 0 6 4 6 12 7 6 4 16 12 22 4 11 3 15 2 12-5 6 0 4-2-2-5-1-6 4-4-9-8-3-1-6-5-10-4 5-53-11-60-37-68 2-7 2-14 3-20 3-2 4-8 2-18 2-9 10-24 14-32 18-5 13-17-5-14-6 11-14 34-17 48-6-3-6 4-6 12-3-1-6 2-9 11l-6-15c2-5 1-9-3-14 0-9 12-43 15-49 14 0-25-13-10 9-6 6-14 28-13 40-1 7 0 12 3 16-1 2-2 4-2 6-13-12-27-14-42-6-1-3-1-7-2-10 1-4 9-21 7-27 3-10 6-21 8-31 17 1 12-10-1-12-6 0-10 23-15 39-5 3-13 20-12 27 0 13-1 18-4 16-4-8-8-15-13-22-1-8-2-14-6-20 0-12 1-25 1-37 13-1 18-11-2-12 1 17-6 30-6 46-3 4-2 11 0 20 6 15 11 30 7 47 1 2 1 5 2 7-2-4-5-10-6-11-7-9-4 0-3 3 2 3 12 22 14 25zm82 86l-1-1c1-4 0-8-1-12-3-1-6-1-9-2 8-2 17-4 15-13 7-3 15-15 23-33 9 0 12 4 12 11-7-1-14 2-20 10-7 8-13 21-19 40z" fill="#2b2a29" mask="url(#x)" stroke="#2b2a29" stroke-width=".90003"/><path class="fil1 str0" d="m857 787c11-17 23-25 39-32 5-15 26-36 36-44 4-4 5-7 2-12 0-6 5-7 4-11-2-3-3-6-5-9 2 2 5 3 7 5 0-3-1-6-1-9 1 3 3 5 4 8 1-3 2-5 3-8v15c4 1 10 4 7 12 0 3 2 3 2 5 0 1-1 0-2 1s-1 4-2 5c2 3 1 3 1 4s-1 1-3-1c2 7 1 18-1 25 3 1 6 2 9 3 3 2 2 4 0 5 2 21 6 37 11 48 4 10 10 17 17 19 1-6 1-14 0-22 1-5 6-3 14 0 7-1 18-3 23 8 12 3 15 7 11 12 6 3 4 4-3 4-2 6 4 6-11 3-4-1-7 2-11-2-6 53-23 51-51 44 1 8 0 14-1 21 3 3 2 9-1 19 0 10 0 19 3 30 17 15 10 21-7 9-4-13-2-29-3-43-7-1-6-8-4-15-3 0-5-5-7-15-3 4-6 7-9 11 1 6-1 9-6 12-2 8-6 20-5 28 18 8 3 18-9 4 3-12 5-26 6-36 0-7 2-12 7-14 0-2-1-5-1-7-15 5-30-1-43-16-1 3-3 6-4 8 1 5 0 10-3 14 1 11 1 23 2 34 17 9 10 16-4 11-6-3-5-28-7-45-4-5-4-11-1-16 3-12 3-18 0-18-6 5-11 10-18 13-2 7-5 12-10 16-2 12-4 24-7 36 13 8 10 18-9 9 5-15 6-30 9-46-2-6 0-12 4-19 9-11 17-23 17-41l3-6c-3 3-7 7-8 7-9 5-4-2-3-5 2-1 17-14 19-16zm99-37h-1c1 4-1 8-3 11-3-1-6-2-9-3 8 7 17 13 13 21 6 7 11 22 16 44 9 5 13 2 14-4-7-3-13-10-18-21s-9-28-11-48z" fill="#2b2a29" stroke="#2b2a29" stroke-width=".90003"/><path class="fil1 str0" transform="translate(-422,-311)" d="m1041 1412c1 4 8 9 10 12 1 3-8 0-6 1 17 11 37 53 51 85 1 1-2-1-2 1 2 4 4 7 5 11 3 6 4 10-1 15-2 7 7 9 5 13-5 1 1 12 3 1 3 2 16 1 11-6-1-2 0 1 0-5 1-3 3-3 4-5 0-1-1-1-2-3-1-1 1-4 0-5 2-6 6-8 9-6-1-6-8-8-10-1 3-8 5-21 4-30 3 0 6 0 10-1 3-2 3-4 1-5 8-18 15-31 21-40 5-6 9-9 12-8-1 6 0 13-2 19 3 6 8 4 12 2 6 3 17 8 24-4 12 0 16-4 13-11 6-2 4-4-2-5-1-7 5-7-10-6-4 0-6-4-11-1 5-64-6-84-34-83 2-9-5-16-4-24 3-3 4-11 3-23 2-11 2-42 7-54 20-13 17-2-3 7-6 15-8 33-12 51-7-1-7 8-7 16-3 0 1 4-2 15l-6-15c2-7 1-10-4-16 0-10-4-55-1-63 19-5 11-16-3-2-6 12-6 55-4 68-2 8 0 14 4 18l-3 9c-14-9-29-6-45 9-1-4-6-8-7-11 2-6 2-11-1-17 3-13 5-63 8-76 19-6 15 13 1 16-7 2-12 39-17 59-5 5-6 11-5 19 0 15 4 22 1 21-4-8-9-15-15-20-1-9-3-16-7-21 0-15 4-49 5-64 14-6 11-7-10-1 1 19-2 45-2 63-3 6-3 14-1 24 6 15 12 31 8 52 1 3 1 5 2 8l-3-6c-8-8-4 2-3 5 2 2 11 17 12 20zm93 62c10-37 11-41 32-46v5c-4-1-9 2-14 9s-11 18-18 32zm-4 7l-1-1c1-5 0-9-1-14-3 0-8 8-11 9 9-6 21-19 18-29 8-6 9-5 18-29 10-4 13 1 13 9-27 5-26 18-36 55z" fill="#2b2a29" mask="url(#z)" stroke="#2b2a29" stroke-width=".90003"/><path class="fil1 str0" transform="translate(-422,-311)" d="m836 1432c1 3 10 9 8 10s-8 10-6 8c20-14 25 57 37 72 2 3 3 6 4 10 2 6 3 9-2 17-2 6 1 8 2 9l-5 8 7-4v6l4-5 3 5v-9c4-1 7-3 6-7-1-2 0 1 0-5 1-4 3-4 4-6 1-1-1 0-1-3-1-1 1-5 1-6l-1-3c2-4 3-10 5-17 0-1-2 2-2 0 1-6 5-17 5-22 3-1 6-2 9-4 3-3 3-5 2-6 9-21 17-39 23-50 5-8 23-43 26-43-1 6-1 14-3 21 2 6 7 2 10-1 6 1 15 0 22-15 11-4 15-10 13-16 4-4 2-5-1-5-1-6 3-5-9-5-3 1-5 2-10 7 11-71-11-60-37-50 3-10 4-22 5-31 3-4 5-13 4-25 3-13 3-16 9-30 12-8 14-28-5-12-7 18-7 29-12 49-6 1-7 10-8 20-3 0-6 10-10 23-1-5-3-10-4-15 2-8 2-12-2-16 1-11-1-36 2-46 18-12 8-25-7-5-1 16-1 43-4 57-2 10-2 16 2 18-1 3-2 7-3 10-13 0-27 7-42 24 0-4 0-5-1-8 2-7 3-13 1-18 4-15 1-59 5-74 18-12 18-3 5 6-6 4-11 46-17 69-5 7-7 14-6 22-1 16-3 21-6 21-3-7-7-13-11-17 0-9-1-16-4-21 2-16 3-32 5-48 14-12 14-25-5-12-1 20-4 41-7 61-4 8-4 17-3 26 4 14 8 30 2 54 0 3 1 5 1 8-1-4-2-5-2-6-6-6-4 3-4 6l9 18zm80 38c15-42 28-78 48-90 0 2 0 3-1 5-4 0-22 35-28 44s-12 23-19 40zm-4 9c-3-2-3 7 4-18 7-9 13-30 23-59 9-7 26-33 25-24-25 14-35 52-52 101z" fill="#2b2a29" mask="url(#ab)" stroke="#2b2a29" stroke-width=".90003"/><path class="fil1 str0" d="m619 802c1-3 8-7 10-10 1-3-8 0-6-1 17-9 37-44 51-70 1-1-2 1-2 0 2-3 4-6 5-9 3-5 4-8-1-12-2-5 7-8 5-11-5-1 1-10 3-1 3-2 16-1 11 5-1 1 0-1 0 4 1 3 3 2 4 4 0 1-1 1-2 2s1 3 0 4c2 5 6 7 9 5-1 5-8 7-10 1 3 7 5 17 4 25 3 0 6 0 10 1 3 1 3 3 1 4 8 14 15 26 21 33 5 5 9 8 12 7-1-5 0-11-2-16 3-5 8-3 12-2 6-2 17-7 24 3 12 0 16 3 13 9 6 2 4 3-2 5-1 6 5 5-10 5-4 0-6 3-11 1 5 53-6 70-34 69 2 7-5 13-4 20 3 3 4 9 3 19 2 9 4 19 9 28 20 11 15 18-5 10-6-12-8-27-12-42-7 1-7-6-7-14-3 0 1-3-2-12-2 4-4 8-6 13 2 6 1 9-4 13 0 8-2 21 1 28 19 5 7 17-8 6 1-12 0-26-2-36-2-7 0-12 4-15-1-2-2-5-3-7-14 8-29 5-45-7-1 3-6 6-7 9 2 5 2 9-1 14l9 33c19 5 13 14-2 11-7-2-11-26-16-42-5-4-6-9-5-16 0-12 4-18 1-17-4 7-9 12-15 17-1 7-3 13-7 18 0 12 1 24 1 36 14 5 14 16-7 11 1-16-1-31-1-46-3-5-3-12-1-20 6-12 12-26 8-43 1-2 1-4 2-7-2 3-3 5-3 5-8 7-4-1-3-4 2-2 11-14 12-16zm93-51c10 30 11 34 32 38v-4c-4 1-9-2-14-8s-11-15-18-27zm-4-6s-1 0-1 1c1 4 0 8-1 12-3 0-8-7-11-7 9 5 21 15 18 24 8 5 9 4 18 24 10 3 13-1 13-7-27-4-26-15-36-46z" fill="#2b2a29" stroke="#2b2a29" stroke-width=".90003"/><path class="fil1 str0" d="m382 833c0-3 8-13 6-12s-10-2-7-3c22-2 15-60 24-80 2-3 2-7 2-10 1-6 1-9-5-11-2-3-1-7 1-9l-6-3 8-1-1-5 4 2 2-6 1 7c4-2 7-3 7 2 0 2 0-1 1 4 2 2 3 1 5 3 1 1-1 1-1 3 0 1 2 3 2 4l-1 3c2 2 5 6 7 10 1 1-3 0-2 1 2 4 8 10 9 13 3-1 6-2 9-3 3 0 4 2 3 4 12 11 23 20 31 24 6 3 29 19 32 17-2-4-4-10-7-14 1-6 6-6 10-6 5-4 15-10 24-3 12-4 17-2 15 4 4 1 3 3 0 5 0 5 4 2-8 9-3 1-6 2-11 1 22 49-1 53-28 62 5 6 7 15 10 21 4 1 7 7 9 17 5 8 10 16 18 24 22 3 20 12-1 11-10-9-17-23-25-36-6 3-9-4-11-11-3 1-7-4-13-12-1 5-1 9-2 14 4 5 4 8 1 13 3 8 6 21 11 26 19-2 12 14-6 8-3-12-9-25-14-34-4-6-4-11-2-15-2-2-3-4-5-6-12 8-27 11-45 8 0 3 0 4 1 7 3 4 5 8 4 13 6 9 13 19 19 28 19-2 17 9 2 11-7 1-19-21-29-35-6-2-9-7-9-13-4-12-7-14-9-13-2 8-5 14-8 21 2 7 2 13 0 19 4 11 9 23 13 34 15 0 18 10-3 13-4-15-11-29-17-43-5-4-7-10-7-18 2-14 2-28-7-44v-7c-1 4-1 5-1 6-5 9-4 0-5-3 1-2 5-17 6-20zm71-80c22 23 40 43 61 39 0-1-1-2-2-3-4 2-27-13-34-17s-16-10-26-19zm-6-4c-3 4-4-4 7 12 9 2 17 15 32 31 10 0 30 10 29 3-27 5-43-18-68-45z" fill="#2b2a29" stroke="#2b2a29" stroke-width=".90003"/><line class="fil2" x1="746" x2="722" y1="1091" y2="1337" fill="none"/><line class="fil2" x1="645" x2="815" y1="1164" y2="1248" fill="none"/><g transform="translate(-422,-311)"><path class="fil3" d="m2293 1331v6m64-75v3m-1 33v12m-14-30h4-1m27 1zm-22-7c1 0 2 0 3 1 2 0 4 0 6 1v-11h-1l-7 1v8zm12 1h9v-12l-9 1v12zm10 3h-10l-1 27v-12l10 2v-17zm-13 0c-2 0-4 0-6-1h-3l-1 14 9 1v12l1-27zm-105 54 2-75-3 3-3-6h-8l-2-7 86-105 63 26 92 112-2 2-4-3-19-2-3 57h-7l2-59-13-7-7 66h-129l4-28 5 1-10-2-2 25h-2l2-26-4-1-2 28h-2l2-28-4-1-2 29h-2l2-29-5-1-1 31h-2l1-31-5-1-1 32h-2l1-32-13-3 9 2v36l-16-3zm48-27v-2l5 1-5-1 5-37-6 11-33-17v38l4 1v-4h1v4l5 1v-5h1v5l5 1v-6h1v6l4 1v-6h1v6l4 1 1-6h1v6l5 1z"/></g><g transform="translate(-422,-311)" clip-path="url(#ad)"><image transform="translate(592.1 58.001)" x="1754" y="1203" width="28" height="37" xlink:href="trzej krolowie_Images\trzej krolowie_ImgID2.png"/></g><polygon class="fil3 str0" transform="translate(-422,-311)" points="2659 1302 2692 1334 2676 1327 2708 1357 2693 1351 2716 1373 2718 1377 2707 1372 2723 1388 2735 1410 2729 1388 2733 1372 2726 1377 2725 1373 2730 1351 2720 1357 2727 1327 2717 1334 2724 1302 2701 1317 2693 1299 2687 1299 2694 1317" stroke="#2b2a29" stroke-width=".90003"/><polygon class="fil3 str0" transform="translate(-422,-311)" points="2623 1302 2656 1337 2642 1330 2673 1364 2659 1356 2682 1382 2684 1385 2674 1380 2690 1397 2703 1422 2696 1397 2697 1380 2691 1385 2690 1382 2693 1356 2684 1364 2687 1330 2679 1337 2682 1302 2663 1319 2654 1299 2648 1299 2656 1319" stroke="#2b2a29" stroke-width=".90003"/><polygon class="fil3 str0" transform="translate(-422,-311)" points="2575 1305 2609 1341 2593 1333 2625 1367 2609 1359 2633 1385 2635 1388 2623 1383 2640 1400 2651 1424 2646 1400 2651 1383 2643 1388 2643 1385 2650 1359 2639 1367 2649 1333 2637 1341 2647 1305 2620 1323 2614 1303 2606 1303 2613 1322" stroke="#2b2a29" stroke-width=".90003"/><polygon class="fil3 str0" transform="translate(-422,-311)" points="2528 1315 2561 1349 2546 1342 2577 1373 2562 1366 2586 1390 2588 1394 2577 1389 2593 1405 2605 1428 2599 1405 2602 1389 2595 1394 2594 1390 2599 1366 2589 1373 2595 1342 2586 1349 2592 1315 2569 1331 2562 1313 2555 1313 2563 1331" stroke="#2b2a29" stroke-width=".90003"/><path class="fil4" d="m1375.1 1142c-474.3 151-957.52-177-1374.4 26v444h2625v-466l-123.77-15-284.19-75c-377.26-99-500.05-24-842.65 85z" fill="url(#q)"/><g transform="translate(-422,-311)"><path class="fil3 str1" d="m2295 1328-5-6m123 86-3-4m-27-38-10-14m10 34c1 0 1 0 2-1h1-1m26-1zm-16 7c1 0 2 0 3-1 2 0 3 0 5-1l9 12h-2l-8-1-7-10zm11-1h3c2 0 4 0 5 1h2l10 14-10-2-10-13zm7-3h-1c-2 0-4-1-6-1h-3l-22-30 10 13 9-2 11 16 2 3zm-13-1c-2 0-4 0-5 1h-3l-12-16 8-1-10-14 22 30zm-147-63 60 85-5-4 1 7h-8l3 8 168 121 42-29 4-126-3-2-2 3-17 2-48-65h-7l48 67-8 7-59-75-129-1 26 31 4-1-8 2-22-29h-2l23 29-3 1-24-31h-2l24 32-3 1-24-33h-2l25 33-4 1-26-35h-2l26 36-4 1-26-36h-2l26 36-11 3 8-2-28-40-14 3zm70 32 2 2 5-1-5 1 34 42-15-12-19 19-29-43 3-1 3 4h1l-3-5 4-1 4 6h1l-4-6 4-1 5 7h1l-5-7 3-1 5 7h1l-5-7 3-1 5 7h1l-5-7 4-1z" mask="url(#r)" stroke="#000" stroke-width=".90003"/></g><g transform="translate(-422,-311)" clip-path="url(#t)"><image transform="translate(620.12 168.76)" x="1754" y="1197" width="57" height="43" xlink:href="trzej krolowie_Images\trzej krolowie_ImgID3.png"/></g><polygon class="fil3 str0" transform="translate(-422,-311)" points="2527 1311 2547 1286 2535 1291 2553 1267 2541 1272 2555 1255 2555 1252 2547 1256 2556 1243 2559 1226 2562 1243 2571 1256 2563 1252 2563 1255 2577 1272 2565 1267 2584 1291 2571 1286 2591 1311 2562 1299 2562 1313 2555 1313 2555 1299" stroke="#2b2a29" stroke-width=".90003"/><polygon class="fil3 str0" transform="translate(-422,-311)" points="2574 1301 2596 1272 2582 1278 2604 1251 2590 1257 2605 1236 2606 1233 2596 1237 2607 1224 2610 1204 2614 1224 2624 1237 2615 1233 2615 1236 2631 1257 2617 1251 2638 1278 2624 1272 2647 1301 2614 1287 2614 1303 2606 1303 2606 1287" stroke="#2b2a29" stroke-width=".90003"/><polygon class="fil3 str0" transform="translate(-422,-311)" points="2658 1297 2678 1271 2665 1277 2684 1252 2672 1257 2686 1239 2686 1236 2678 1240 2687 1227 2690 1209 2693 1227 2703 1240 2694 1236 2695 1239 2709 1257 2697 1252 2716 1277 2703 1271 2723 1297 2693 1285 2693 1299 2687 1299 2687 1285" stroke="#2b2a29" stroke-width=".90003"/><polygon class="fil3 str0" transform="translate(-422,-311)" points="2701 1297 2716 1277 2706 1281 2721 1262 2711 1266 2722 1252 2722 1250 2716 1253 2723 1244 2725 1230 2728 1244 2735 1253 2728 1250 2729 1252 2740 1266 2730 1262 2745 1281 2735 1277 2750 1297 2728 1287 2728 1298 2723 1298 2723 1287" stroke="#2b2a29" stroke-width=".90003"/><polygon class="fil3 str0" transform="translate(-422,-311)" points="2702 1300 2730 1330 2717 1324 2744 1352 2732 1346 2752 1367 2753 1370 2745 1366 2758 1380 2769 1401 2763 1380 2764 1366 2759 1370 2758 1367 2760 1346 2753 1352 2756 1324 2749 1330 2751 1300 2735 1315 2728 1298 2723 1298 2730 1314" stroke="#2b2a29" stroke-width=".90003"/><polygon class="fil3 str0" transform="translate(-422,-311)" points="2733 1302 2752 1277 2740 1282 2758 1258 2746 1263 2760 1245 2761 1243 2752 1247 2762 1234 2764 1217 2767 1234 2777 1247 2768 1243 2769 1245 2783 1263 2771 1258 2789 1282 2777 1277 2796 1302 2767 1290 2767 1304 2761 1304 2761 1290" stroke="#2b2a29" stroke-width=".90003"/><polygon class="fil3 str0" transform="translate(-422,-311)" points="2734 1306 2767 1335 2752 1329 2783 1357 2768 1351 2792 1372 2794 1375 2783 1371 2800 1385 2812 1405 2805 1385 2808 1371 2802 1375 2801 1372 2805 1351 2796 1357 2801 1329 2792 1335 2797 1306 2775 1320 2767 1304 2761 1304 2768 1320" stroke="#2b2a29" stroke-width=".90003"/><polygon class="fil3 str0" transform="translate(-422,-311)" points="2777 1300 2792 1281 2782 1285 2797 1266 2787 1270 2798 1256 2798 1254 2792 1257 2799 1248 2801 1234 2804 1248 2811 1257 2804 1255 2805 1256 2815 1270 2806 1266 2820 1285 2811 1281 2826 1300 2804 1291 2804 1302 2799 1302 2799 1291" stroke="#2b2a29" stroke-width=".90003"/><polygon class="fil3 str0" transform="translate(-422,-311)" points="2777 1304 2801 1330 2790 1325 2812 1350 2800 1345 2817 1364 2818 1366 2810 1362 2822 1375 2830 1394 2826 1375 2830 1362 2824 1366 2824 1364 2829 1345 2821 1350 2827 1325 2820 1330 2827 1304 2808 1317 2804 1302 2799 1302 2803 1316" stroke="#2b2a29" stroke-width=".90003"/><polygon class="fil3 str0" transform="translate(-422,-311)" points="2801 1302 2814 1286 2806 1289 2817 1274 2810 1278 2819 1267 2819 1265 2813 1267 2819 1260 2821 1249 2823 1260 2829 1267 2824 1265 2824 1267 2833 1278 2825 1274 2836 1289 2829 1286 2841 1302 2823 1294 2823 1303 2819 1303 2819 1294" stroke="#2b2a29" stroke-width=".90003"/><polygon class="fil3 str0" transform="translate(-422,-311)" points="2802 1305 2823 1330 2813 1325 2833 1349 2823 1343 2838 1361 2839 1364 2833 1360 2843 1373 2850 1390 2846 1373 2848 1360 2844 1364 2843 1361 2846 1343 2840 1349 2844 1325 2838 1330 2842 1305 2828 1317 2823 1303 2819 1303 2823 1317" stroke="#2b2a29" stroke-width=".90003"/><polygon class="fil3 str0" transform="translate(-422,-311)" points="2875 1314 2887 1298 2880 1302 2891 1287 2884 1290 2892 1279 2892 1277 2887 1279 2893 1272 2895 1261 2897 1272 2903 1279 2897 1277 2898 1279 2906 1290 2899 1287 2910 1302 2902 1298 2915 1314 2897 1306 2897 1315 2893 1315 2893 1307" stroke="#2b2a29" stroke-width=".90003"/><polygon class="fil3 str0" transform="translate(-422,-311)" points="2876 1317 2896 1342 2887 1336 2906 1360 2896 1354 2911 1372 2912 1374 2905 1371 2915 1383 2923 1399 2919 1383 2921 1372 2917 1375 2916 1372 2919 1356 2913 1360 2917 1338 2911 1343 2915 1319 2901 1330 2897 1317 2893 1316 2897 1329" stroke="#2b2a29" stroke-width=".90003"/><polygon class="fil3 str0" transform="translate(-422,-311)" points="2908 1320 2918 1308 2912 1311 2921 1299 2915 1302 2922 1293 2922 1292 2918 1293 2922 1287 2924 1279 2925 1287 2930 1293 2926 1292 2926 1293 2933 1302 2927 1299 2936 1311 2930 1308 2939 1320 2925 1314 2925 1321 2922 1321 2922 1315" stroke="#2b2a29" stroke-width=".90003"/><polygon class="fil3 str0" transform="translate(-422,-311)" points="2909 1323 2926 1345 2919 1340 2935 1361 2927 1357 2940 1372 2941 1375 2935 1372 2944 1382 2951 1397 2947 1382 2948 1372 2945 1375 2944 1372 2945 1357 2941 1361 2942 1340 2938 1345 2940 1323 2929 1334 2925 1321 2922 1321 2926 1333" stroke="#2b2a29" stroke-width=".90003"/><polygon class="fil3 str0" transform="translate(-422,-311)" points="2935 1328 2944 1317 2938 1319 2946 1309 2941 1311 2947 1304 2947 1303 2944 1304 2948 1299 2949 1291 2950 1299 2954 1304 2951 1303 2951 1304 2957 1311 2951 1309 2959 1319 2954 1317 2963 1328 2950 1323 2950 1329 2947 1329 2947 1323" stroke="#2b2a29" stroke-width=".90003"/><polygon class="fil3" transform="translate(-422,-311)" points="2936 1330 2953 1354 2946 1349 2962 1372 2955 1366 2968 1383 2969 1386 2964 1382 2972 1393 2980 1409 2975 1394 2974 1384 2972 1386 2971 1384 2971 1369 2968 1373 2967 1353 2964 1357 2963 1336 2955 1344 2950 1332 2947 1331 2952 1343"/><polygon class="fil3 str0" transform="translate(-422,-311)" points="2824 1307 2833 1295 2827 1297 2836 1286 2830 1288 2837 1280 2837 1278 2833 1280 2837 1274 2839 1266 2840 1274 2845 1280 2841 1278 2841 1280 2848 1288 2842 1286 2851 1297 2845 1295 2854 1307 2840 1301 2840 1308 2837 1308 2837 1301" stroke="#2b2a29" stroke-width=".90003"/><polygon class="fil3 str0" transform="translate(-422,-311)" points="2824 1309 2838 1328 2831 1324 2845 1343 2838 1339 2848 1352 2849 1354 2844 1352 2851 1361 2856 1374 2854 1361 2856 1352 2853 1354 2852 1352 2856 1339 2851 1343 2855 1324 2850 1328 2854 1309 2843 1319 2840 1308 2837 1308 2840 1318" stroke="#2b2a29" stroke-width=".90003"/><polygon class="fil3 str0" transform="translate(-422,-311)" points="2853 1312 2862 1300 2856 1302 2865 1291 2860 1293 2866 1285 2866 1283 2862 1285 2867 1279 2868 1271 2870 1279 2874 1285 2870 1283 2870 1285 2877 1293 2871 1291 2880 1302 2874 1300 2884 1312 2870 1306 2870 1313 2867 1313 2867 1306" stroke="#2b2a29" stroke-width=".90003"/><polygon class="fil3 str0" transform="translate(-422,-311)" points="2853 1314 2869 1331 2862 1327 2877 1343 2870 1340 2881 1351 2882 1353 2877 1351 2884 1359 2890 1370 2887 1359 2889 1351 2886 1353 2885 1351 2887 1340 2883 1343 2886 1327 2881 1331 2884 1314 2873 1322 2870 1313 2867 1313 2870 1322" stroke="#2b2a29" stroke-width=".90003"/><g transform="translate(-422,-311)" stroke="#fc0" stroke-width=".90003"><path class="fil5 str2" d="m2303 880 9 52 53-4-41 34 30 44-50-18-23 48-9-52-53 4 35-29c-84-2-151 1-211 49 15-24 20-39 50-57-46-10-51-3-100 7 86-55 141-51 255-21l-18-27 50 18 23-48z" fill="#fecc00"/><polygon class="fil6 str2" points="1992 932 2001 940 1989 938 1984 949 1982 937 1970 936 1980 930 1978 918 1987 927 1997 921" fill="#fc0"/><polygon class="fil6 str2" points="2046 923 2057 926 2046 931 2047 943 2040 934 2029 938 2035 928 2027 919 2038 922 2044 911" fill="#fc0"/><polygon class="fil6 str2" points="2033 1011 2040 1020 2028 1017 2021 1026 2021 1014 2010 1011 2021 1007 2021 995 2028 1005 2040 1001" fill="#fc0"/><polygon class="fil6 str2" points="2085 984 2095 991 2083 991 2079 1003 2075 991 2063 991 2073 984 2069 973 2079 980 2088 973" fill="#fc0"/><polygon class="fil6 str2" points="2104 916 2115 919 2104 923 2106 935 2098 926 2087 931 2093 921 2085 912 2097 915 2103 904" fill="#fc0"/><polygon class="fil6 str2" points="2170 924 2177 934 2166 930 2158 940 2159 928 2147 924 2159 920 2159 908 2166 918 2177 915" fill="#fc0"/><polygon class="fil6 str2" points="2182 955 2189 964 2178 960 2171 970 2171 958 2160 954 2171 951 2171 939 2178 949 2190 945" fill="#fc0"/><polygon class="fil6 str2" points="2127 959 2139 962 2128 966 2129 978 2121 969 2110 974 2116 964 2108 955 2120 957 2126 947" fill="#fc0"/><polygon class="fil6 str2" points="2039 969 2047 978 2036 975 2029 986 2028 974 2017 971 2028 966 2027 954 2035 963 2046 959" fill="#fc0"/><polygon class="fil6 str2" points="1977 1003 1984 1010 1974 1008 1969 1016 1969 1006 1959 1004 1968 1001 1967 991 1974 998 1983 995" fill="#fc0"/><polygon class="fil6 str2" points="1977 970 1983 978 1974 975 1968 983 1968 973 1959 971 1968 968 1968 958 1974 966 1983 962" fill="#fc0"/><polygon class="fil6 str2" points="1956 1035 1963 1037 1956 1040 1957 1048 1952 1042 1945 1045 1949 1038 1944 1033 1951 1034 1955 1028" fill="#fc0"/><polygon class="fil6 str2" points="1990 1039 1993 1046 1986 1042 1980 1048 1982 1040 1976 1036 1983 1035 1985 1028 1988 1035 1995 1034" fill="#fc0"/><polygon class="fil6 str2" points="1929 1e3 1932 1007 1926 1003 1920 1008 1922 1e3 1915 996 1923 996 1925 988 1928 995 1935 995" fill="#fc0"/><polygon class="fil6 str2" points="1946 965 1951 971 1944 970 1940 976 1939 969 1931 968 1938 964 1937 957 1942 962 1949 959" fill="#fc0"/><polygon class="fil6 str2" points="1930 949 1937 953 1929 953 1927 961 1924 953 1917 954 1923 949 1920 942 1926 946 1933 942" fill="#fc0"/><polygon class="fil6 str2" points="1897 960 1904 962 1897 965 1898 973 1893 967 1886 970 1890 964 1885 958 1892 959 1896 953" fill="#fc0"/><polygon class="fil6 str2" points="1885 995 1889 999 1884 998 1882 1003 1880 998 1875 997 1880 994 1879 989 1883 992 1888 990" fill="#fc0"/><polygon class="fil6 str2" points="1894 1040 1896 1046 1892 1043 1887 1047 1889 1041 1884 1038 1889 1038 1890 1032 1893 1037 1898 1037" fill="#fc0"/><polygon class="fil6 str2" points="1923 1035 1926 1040 1921 1038 1917 1042 1917 1037 1912 1034 1918 1033 1918 1027 1921 1032 1927 1031" fill="#fc0"/><polygon class="fil6 str2" points="1916 1083 1917 1088 1913 1084 1908 1086 1910 1081 1907 1077 1912 1078 1915 1074 1916 1079 1921 1080" fill="#fc0"/><polygon class="fil6 str2" points="1941 1066 1945 1070 1940 1069 1937 1075 1936 1069 1931 1068 1936 1066 1935 1060 1939 1064 1944 1061" fill="#fc0"/><polygon class="fil6 str2" points="1875 1073 1876 1076 1873 1074 1870 1077 1871 1073 1868 1071 1871 1071 1872 1067 1874 1071 1877 1070" fill="#fc0"/><polygon class="fil6 str2" points="1849 1048 1851 1051 1847 1050 1845 1052 1845 1049 1842 1047 1845 1046 1845 1043 1848 1046 1851 1045" fill="#fc0"/><polygon class="fil6 str2" points="1868 1026 1869 1029 1866 1027 1863 1030 1864 1026 1861 1024 1864 1024 1865 1020 1867 1024 1870 1023" fill="#fc0"/><polygon class="fil6 str2" points="1834 1012 1835 1016 1832 1014 1829 1016 1830 1012 1827 1010 1831 1010 1832 1007 1833 1010 1837 1010" fill="#fc0"/><polygon class="fil6 str2" points="1847 986 1849 990 1845 988 1843 990 1844 986 1841 984 1844 984 1845 981 1847 984 1850 984" fill="#fc0"/><polygon class="fil6 str2" points="1806 1017 1808 1021 1805 1019 1802 1021 1803 1018 1800 1016 1803 1015 1804 1012 1806 1015 1809 1015" fill="#fc0"/><polygon class="fil6 str2" points="1835 1089 1836 1089 1835 1090 1835 1091 1835 1090 1833 1091 1834 1090 1833 1089 1834 1089 1835 1088" fill="#fc0"/><polygon class="fil6 str2" points="1812 1065 1813 1065 1812 1066 1812 1067 1811 1066 1810 1066 1810 1065 1810 1064 1811 1065 1811 1064" fill="#fc0"/><polygon class="fil6 str2" points="1783 1045 1784 1045 1783 1046 1783 1047 1783 1046 1782 1046 1782 1045 1781 1044 1783 1045 1783 1044" fill="#fc0"/><polygon class="fil6 str2" points="1811 1111 1813 1112 1811 1112 1811 1113 1811 1112 1810 1113 1810 1112 1809 1111 1811 1111 1811 1110" fill="#fc0"/><polygon class="fil6 str2" points="1773 1011 1774 1011 1773 1012 1773 1013 1772 1012 1771 1013 1772 1012 1771 1011 1772 1011 1773 1010" fill="#fc0"/><polygon class="fil6 str2" points="1737 1026 1738 1026 1737 1027 1737 1028 1737 1027 1735 1027 1736 1026 1735 1025 1736 1026 1737 1025" fill="#fc0"/><polygon class="fil6 str2" points="1754 1052 1755 1052 1754 1053 1754 1054 1753 1053 1752 1054 1753 1053 1752 1052 1753 1052 1754 1051" fill="#fc0"/><polygon class="fil6 str2" points="1768 1097 1769 1097 1768 1098 1768 1099 1767 1098 1766 1098 1767 1097 1766 1096 1767 1097 1768 1096" fill="#fc0"/><polygon class="fil6 str2" points="1743 1089 1745 1089 1743 1090 1744 1091 1743 1090 1742 1090 1742 1089 1741 1088 1743 1089 1743 1088" fill="#fc0"/><polygon class="fil6 str2" points="1799 1087 1800 1088 1799 1088 1799 1089 1798 1088 1797 1089 1798 1088 1797 1087 1798 1087 1799 1086" fill="#fc0"/><polygon class="fil6 str2" points="1790 1136 1791 1136 1790 1136 1790 1138 1789 1137 1788 1137 1788 1136 1788 1135 1789 1135 1789 1134" fill="#fc0"/><polygon class="fil6 str2" points="1826 1155 1827 1155 1826 1156 1826 1157 1825 1156 1824 1156 1824 1155 1824 1154 1825 1155 1825 1154" fill="#fc0"/><polygon class="fil6 str2" points="1836 1123 1838 1124 1836 1124 1837 1125 1836 1124 1835 1125 1835 1124 1834 1123 1836 1123 1836 1122" fill="#fc0"/><polygon class="fil6 str2" points="1867 1106 1868 1106 1867 1107 1867 1108 1866 1107 1865 1108 1865 1107 1865 1106 1866 1106 1866 1105" fill="#fc0"/></g><polygon class="fil3 str0" transform="translate(-422,-311)" points="2145 1335 2174 1298 2156 1306 2183 1272 2165 1279 2185 1253 2186 1249 2173 1255 2187 1237 2191 1212 2195 1237 2209 1255 2197 1249 2197 1253 2217 1279 2200 1272 2227 1306 2209 1298 2237 1335 2195 1317 2195 1337 2186 1337 2186 1318" stroke="#2b2a29" stroke-width=".90003"/><polygon class="fil3 str1" transform="translate(-422,-311)" points="2149 1343 2214 1389 2189 1380 2250 1424 2225 1415 2271 1447 2275 1452 2258 1446 2289 1468 2318 1501 2297 1468 2293 1445 2286 1452 2283 1447 2277 1413 2267 1423 2259 1378 2249 1388 2241 1340 2217 1364 2196 1338 2187 1338 2207 1364" mask="url(#u)" stroke="#000" stroke-width=".90003"/><g transform="translate(-422,-311)" clip-path="url(#w)"><image transform="translate(425.51 -20.157)" x="1754" y="1217" width="24" height="23" xlink:href="trzej krolowie_Images\trzej krolowie_ImgID4.png"/></g><polygon class="fil2" transform="translate(-422,-311)" points="422 311 422 1918 3047 1918 3047 311" fill="none"/></svg>
